<svg width="800" height="600" xmlns="http://www.w3.org/2000/svg">
  <rect width="100%" height="100%" fill="#f8fafc"/>
  <pattern id="grid" width="40" height="40" patternUnits="userSpaceOnUse">
    <path d="M 40 0 L 0 0 0 40" fill="none" stroke="#f1f5f9" stroke-width="1"/>
  </pattern>
  <rect width="100%" height="100%" fill="url(#grid)"/>
  
  <g transform="translate(400, 260)" fill="#64748b" text-anchor="middle">
    <svg x="-32" y="-50" width="64" height="64" viewBox="0 0 24 24" fill="none" stroke="currentColor" stroke-width="1.5" stroke-linecap="round" stroke-linejoin="round">
      <path d="M2.25 21h19.5m-18-18v18m10.5-18v18m6-13.5V21M6.75 6.75h.75m-.75 3h.75m-.75 3h.75m3-6h.75m-.75 3h.75m-.75 3h.75M6.75 21v-3.375c0-.621.504-1.125 1.125-1.125h2.25c.621 0 1.125.504 1.125 1.125V21M3 3h12m-.75 4.5H21m-3.75 3.75h.008v.008h-.008v-.008zm0 3h.008v.008h-.008v-.008zm0 3h.008v.008h-.008v-.008z" />
    </svg>
    <text y="50" font-family="system-ui, -apple-system, sans-serif" font-size="28" font-weight="700" fill="#334155">Corporate Profile</text>
    <text y="80" font-family="system-ui, -apple-system, sans-serif" font-size="16" font-weight="500" fill="#94a3b8">Photo Coming Soon</text>
  </g>
</svg>
