<svg width="800" height="600" xmlns="http://www.w3.org/2000/svg">
  <rect width="100%" height="100%" fill="#f8fafc"/>
  <pattern id="grid" width="40" height="40" patternUnits="userSpaceOnUse">
    <path d="M 40 0 L 0 0 0 40" fill="none" stroke="#f1f5f9" stroke-width="1"/>
  </pattern>
  <rect width="100%" height="100%" fill="url(#grid)"/>
  
  <g transform="translate(400, 260)" fill="#64748b" text-anchor="middle">
    <svg x="-32" y="-50" width="64" height="64" viewBox="0 0 24 24" fill="none" stroke="currentColor" stroke-width="1.5" stroke-linecap="round" stroke-linejoin="round">
      <path d="M15 19.128a9.38 9.38 0 002.625.372 9.337 9.337 0 004.121-.952 4.125 4.125 0 00-7.533-2.493M15 19.128v-.003c0-1.113-.285-2.16-.786-3.07M15 19.128v.106A12.318 12.318 0 018.624 21c-2.331 0-4.512-.645-6.374-1.766l-.001-.109a6.375 6.375 0 0111.964-3.07M12 6.375a3.375 3.375 0 11-6.75 0 3.375 3.375 0 016.75 0zm8.25 2.25a2.625 2.625 0 11-5.25 0 2.625 2.625 0 015.25 0z" />
    </svg>
    <text y="50" font-family="system-ui, -apple-system, sans-serif" font-size="28" font-weight="700" fill="#334155">Group Portrait</text>
    <text y="80" font-family="system-ui, -apple-system, sans-serif" font-size="16" font-weight="500" fill="#94a3b8">Photo Coming Soon</text>
  </g>
</svg>
