<svg width="800" height="600" xmlns="http://www.w3.org/2000/svg">
  <rect width="100%" height="100%" fill="#f8fafc"/>
  <pattern id="grid" width="40" height="40" patternUnits="userSpaceOnUse">
    <path d="M 40 0 L 0 0 0 40" fill="none" stroke="#f1f5f9" stroke-width="1"/>
  </pattern>
  <rect width="100%" height="100%" fill="url(#grid)"/>
  
  <g transform="translate(400, 260)" fill="#64748b" text-anchor="middle">
    <svg x="-32" y="-50" width="64" height="64" viewBox="0 0 24 24" fill="none" stroke="currentColor" stroke-width="1.5" stroke-linecap="round" stroke-linejoin="round">
      <path d="M9.813 15.904L9 18.75l-.813-2.846a4.5 4.5 0 00-3.09-3.09L2.25 12l2.846-.813a4.5 4.5 0 003.09-3.09L9 5.25l.813 2.846a4.5 4.5 0 003.09 3.09L15.75 12l-2.846.813a4.5 4.5 0 00-3.09 3.09zM18.259 8.715L18 9.75l-.259-1.035a3.375 3.375 0 00-2.455-2.456L14.25 6l1.036-.259a3.375 3.375 0 002.455-2.456L18 2.25l.259 1.035a3.375 3.375 0 002.456 2.456L21.75 6l-1.035.259a3.375 3.375 0 00-2.456 2.456z" />
    </svg>
    <text y="50" font-family="system-ui, -apple-system, sans-serif" font-size="28" font-weight="700" fill="#334155">Maternity Session</text>
    <text y="80" font-family="system-ui, -apple-system, sans-serif" font-size="16" font-weight="500" fill="#94a3b8">Photo Coming Soon</text>
  </g>
</svg>
