<svg width="800" height="600" xmlns="http://www.w3.org/2000/svg">
  <rect width="100%" height="100%" fill="#f8fafc"/>
  <pattern id="grid" width="40" height="40" patternUnits="userSpaceOnUse">
    <path d="M 40 0 L 0 0 0 40" fill="none" stroke="#f1f5f9" stroke-width="1"/>
  </pattern>
  <rect width="100%" height="100%" fill="url(#grid)"/>
  
  <g transform="translate(400, 260)" fill="#64748b" text-anchor="middle">
    <svg x="-32" y="-50" width="64" height="64" viewBox="0 0 24 24" fill="none" stroke="currentColor" stroke-width="1.5" stroke-linecap="round" stroke-linejoin="round">
      <path d="M6.827 6.175A2.31 2.31 0 015.186 7.23c-.38.054-.757.112-1.134.175C2.999 7.58 2.25 8.507 2.25 9.574V18a2.25 2.25 0 002.25 2.25h15A2.25 2.25 0 0021.75 18V9.574c0-1.067-.75-1.994-1.802-2.169a47.865 47.865 0 00-1.134-.175 2.31 2.31 0 01-1.64-1.055l-.822-1.316a2.192 2.192 0 00-1.736-1.039 48.774 48.774 0 00-5.232 0 2.192 2.192 0 00-1.736 1.039l-.821 1.316z" /><path d="M16.5 12.75a4.5 4.5 0 11-9 0 4.5 4.5 0 019 0zM18.75 10.5h.008v.008h-.008V10.5z" />
    </svg>
    <text y="50" font-family="system-ui, -apple-system, sans-serif" font-size="28" font-weight="700" fill="#334155">Photobooth</text>
    <text y="80" font-family="system-ui, -apple-system, sans-serif" font-size="16" font-weight="500" fill="#94a3b8">Photo Coming Soon</text>
  </g>
</svg>
